<svg width="400" height="120" viewBox="0 0 400 120" xmlns="http://www.w3.org/2000/svg">
  <g id="hat" transform="translate(70,15)">
  <path transform="scale(0.2)" d="m0 0h18l22 4 23 6 16 6 20 10 10 7 10 9 10 11 12 17 4 3 26 3 21 6 10 4v3l-25 10-22 7-5 1h-17l-19-5-25-12-21-11-8-5 1 39 7 36 8 28 15 47 14 41 1 7-34 2-24 2-1 1 36 6 34 7 30 9 80 27 22 7v3l-26 6-52 13-28 8-15 4-43 14-133 48-64-8-62-10-51-9-10-3-67-14-30-7 3-3 17-6 75-30 17-6 20-4 46-7 2-1-50-6-1-4 17-43 12-32 15-39 12-30 11-28 19-47 5-11 6-8 24-22 20-15 15-10 17-11 18-10z" fill="#5538A0"/>
  <path transform="scale(0.2)" d="m 0 0 l 2 1 l -5 17 l -6 21 l -11 46 l -5 27 l -7 44 l -5 43 l -4 50 l -2 39 l -1 26 v 86 l 1 23 l 4 2 l -5 1 l -62 -8 l -62 -10 l -51 -9 l -10 -2 l -67 -15 l -30 -7 l 3 -3 l 17 -6 l 75 -30 l 17 -6 l 20 -4 l 46 -7 l 2 -1 l -50 -6 l -1 -4 l 17 -43 l 12 -32 l 15 -39 l 12 -30 l 11 -28 l 19 -47 l 5 -11 l 6 -8 l 24 -22 l 20 -15 l 15 -10 l 17 -11 l 18 -10 z" fill="#3A74C5"/>
  </g>

  <text x="130" y="80" font-family="Arial, sans-serif" font-size="60" font-weight="bold">
    <tspan fill="#3A74C5">fu</tspan><tspan fill="#5538A0">query</tspan>
  </text>
</svg>